Coordinates
version=1
nRows=4
nColumns=63
inDegrees=yes

Units are S.I. units (second, meters, Newtons, ...)
If the header above contains a line with 'inDegrees', this indicates whether rotational values are in degrees (yes) or radians (no).

endheader
time	pelvis_tilt	pelvis_list	pelvis_rotation	pelvis_tx	pelvis_ty	pelvis_tz	hip_flexion_r	hip_adduction_r	hip_rotation_r	knee_angle_r	knee_angle_r_beta	ankle_angle_r	subtalar_angle_r	mtp_angle_r	hip_flexion_l	hip_adduction_l	hip_rotation_l	knee_angle_l	knee_angle_l_beta	ankle_angle_l	subtalar_angle_l	mtp_angle_l	L5_S1_Flex_Ext	L5_S1_Lat_Bending	L5_S1_axial_rotation	L4_L5_Flex_Ext	L4_L5_Lat_Bending	L4_L5_axial_rotation	L3_L4_Flex_Ext	L3_L4_Lat_Bending	L3_L4_axial_rotation	L2_L3_Flex_Ext	L2_L3_Lat_Bending	L2_L3_axial_rotation	L1_L2_Flex_Ext	L1_L2_Lat_Bending	L1_L2_axial_rotation	L1_T12_Flex_Ext	L1_T12_Lat_Bending	L1_T12_axial_rotation	Abs_r3	Abs_r2	Abs_r1	Abs_t1	Abs_t2	neck_flexion	neck_bending	neck_rotation	arm_flex_r	arm_add_r	arm_rot_r	elbow_flex_r	pro_sup_r	wrist_flex_r	wrist_dev_r	arm_flex_l	arm_add_l	arm_rot_l	elbow_flex_l	pro_sup_l	wrist_flex_l	wrist_dev_l
     11.80800000	    -51.50898158	     -5.05071281	     -1.04028600	     -0.38028590	      1.12250682	      0.04116087	    103.30590759	     -7.04846434	     -3.44501417	    106.55780165	      1.85978448	      7.37942049	      5.62934073	      0.00000000	     94.53668583	     -5.94065069	      5.81930759	     53.27920201	      0.92989750	     14.58878029	      8.53444476	      0.00000000	     -0.08578633	      0.55689083	      0.74930828	     -0.15931379	      0.74066481	      0.79614005	     -0.14093835	      1.35402438	      0.79614005	     -0.09804519	      1.35402438	      0.65564475	     -0.07966118	      1.13561179	      0.60881298	     -0.04901831	      0.86262390	      0.56198121	     -0.61276315	      6.29966050	      4.16742787	      0.00000000	      0.00000000	     -0.00000000	      0.00000000	      0.00000000	     70.84626111	    -16.99332560	     17.07172320	     37.38163559	     53.30648033	      0.00000000	      5.00000014	     69.00479213	     -7.42396843	     13.50182264	     37.64775808	     58.98629991	      0.00000000	      5.00000014
     11.81700000	    -51.44466162	     -5.15027874	     -1.43661106	     -0.38009428	      1.12206349	      0.04195055	    104.57953853	     -6.84115016	     -3.13012904	    108.43872650	      1.89261281	      9.42182484	      7.85442452	      0.00000000	     92.83986057	     -6.49706995	      5.72379767	     51.06610851	      0.89127173	     14.17577016	      9.29672805	      0.00000000	     -0.08526127	      0.58033412	      0.82278125	     -0.15833871	      0.77184437	      0.87420508	     -0.14007574	      1.41102437	      0.87420508	     -0.09744511	      1.41102437	      0.71993360	     -0.07917362	      1.18341733	      0.66850977	     -0.04871829	      0.89893754	      0.61708594	     -0.60901274	      6.56485558	      4.57606249	      0.00000000	      0.00000000	     -0.00000000	      0.00000000	      0.00000000	     70.79514770	    -17.02471559	     17.06202288	     37.41938660	     53.33757151	      0.00000000	      5.00000014	     68.82127917	     -7.40060498	     13.11933634	     37.71700841	     58.98357791	      0.00000000	      5.00000014
     11.82500000	    -51.36338698	     -5.21557837	     -1.71500220	     -0.37976799	      1.12163475	      0.04271895	    105.85294346	     -6.70241398	     -3.04171401	    110.16284230	      1.92270431	     11.03853930	      8.15708820	      0.00000000	     91.14386574	     -6.89693331	      5.69035807	     49.02007992	      0.85556179	     13.81528257	      9.59412367	      0.00000000	     -0.08565571	      0.59718393	      0.87211737	     -0.15907122	      0.79425462	      0.92662471	     -0.14072377	      1.45199300	      0.92662471	     -0.09789591	      1.45199300	      0.76310270	     -0.07953989	      1.21777747	      0.70859537	     -0.04894367	      0.92503790	      0.65408803	     -0.61183018	      6.75546403	      4.85045520	      0.00000000	      0.00000000	     -0.00000000	      0.00000000	      0.00000000	     70.71764573	    -17.04600090	     17.10874478	     37.49970657	     53.35233999	      0.00000000	      5.00000014	     68.66903207	     -7.43434566	     12.93153290	     37.76892545	     58.96900113	      0.00000000	      5.00000014
     11.83300000	    -51.30021061	     -5.42352933	     -2.15785550	     -0.37943234	      1.12138942	      0.04374295	    107.11653126	     -6.44504811	     -3.21192598	    111.58511372	      1.94752763	     12.04965683	      8.35134905	      0.00000000	     89.58370648	     -7.50908003	      5.68444761	     47.25465204	      0.82474927	     13.29795150	      9.72042759	      0.00000000	     -0.08633161	      0.63191820	      0.95639595	     -0.16032643	      0.84045121	      1.01617070	     -0.14183420	      1.53644591	      1.01617070	     -0.09866839	      1.53644591	      0.83684646	     -0.08016753	      1.28860759	      0.77707171	     -0.04932988	      0.97884129	      0.71729697	     -0.61665804	      7.14838506	      5.31918738	      0.00000000	      0.00000000	     -0.00000000	      0.00000000	      0.00000000	     70.69034967	    -17.07754251	     17.11117975	     37.50855645	     53.34918564	      0.00000000	      5.00000014	     68.51919853	     -7.43755989	     12.85374159	     37.81291304	     58.94940589	      0.00000000	      5.00000014
